<svg width="232" height="232" viewBox="0 0 232 232" fill="none" xmlns="http://www.w3.org/2000/svg">
<circle cx="116" cy="116" r="116" fill="#B5B5B5"/>
<path d="M116 116C107.19 116 99.6477 112.863 93.3736 106.589C87.0995 100.315 83.9624 92.7726 83.9624 83.9621C83.9624 75.1516 87.0995 67.6093 93.3736 61.3352C99.6477 55.0611 107.19 51.924 116 51.924C124.811 51.924 132.353 55.0611 138.627 61.3352C144.902 67.6093 148.039 75.1516 148.039 83.9621C148.039 92.7726 144.902 100.315 138.627 106.589C132.353 112.863 124.811 116 116 116ZM51.9243 180.076V157.65C51.9243 153.111 53.0924 148.939 55.4285 145.135C57.7646 141.33 60.8683 138.427 64.7395 136.424C73.0161 132.286 81.4261 129.183 89.9695 127.113C98.513 125.044 107.19 124.01 116 124.01C124.811 124.01 133.488 125.044 142.031 127.113C150.575 129.183 158.985 132.286 167.261 136.424C171.133 138.427 174.236 141.33 176.572 145.135C178.909 148.939 180.077 153.111 180.077 157.65V180.076H51.9243ZM67.9434 164.057H164.058V157.65C164.058 156.181 163.691 154.846 162.956 153.645C162.222 152.443 161.254 151.509 160.053 150.842C152.844 147.237 145.569 144.534 138.227 142.732C130.885 140.93 123.476 140.029 116 140.029C108.525 140.029 101.116 140.93 93.7741 142.732C86.432 144.534 79.1567 147.237 71.9481 150.842C70.7467 151.509 69.7789 152.443 69.0447 153.645C68.3105 154.846 67.9434 156.181 67.9434 157.65V164.057ZM116 99.9811C120.406 99.9811 124.177 98.4126 127.314 95.2755C130.451 92.1385 132.02 88.3673 132.02 83.9621C132.02 79.5569 130.451 75.7857 127.314 72.6486C124.177 69.5116 120.406 67.9431 116 67.9431C111.595 67.9431 107.824 69.5116 104.687 72.6486C101.55 75.7857 99.9814 79.5569 99.9814 83.9621C99.9814 88.3673 101.55 92.1385 104.687 95.2755C107.824 98.4126 111.595 99.9811 116 99.9811Z" fill="#292929"/>
<g filter="url(#filter0_d_38_65)">
<circle cx="197" cy="203" r="15" fill="#B5B5B5"/>
<path d="M194.977 211.625V195.898H198.545V211.625H194.977ZM188.898 205.545V201.977H204.625V205.545H188.898Z" fill="#292929"/>
</g>
<defs>
<filter id="filter0_d_38_65" x="175" y="181" width="44" height="44" filterUnits="userSpaceOnUse" color-interpolation-filters="sRGB">
<feFlood flood-opacity="0" result="BackgroundImageFix"/>
<feColorMatrix in="SourceAlpha" type="matrix" values="0 0 0 0 0 0 0 0 0 0 0 0 0 0 0 0 0 0 127 0" result="hardAlpha"/>
<feOffset/>
<feGaussianBlur stdDeviation="3.5"/>
<feComposite in2="hardAlpha" operator="out"/>
<feColorMatrix type="matrix" values="0 0 0 0 0 0 0 0 0 0 0 0 0 0 0 0 0 0 0.25 0"/>
<feBlend mode="normal" in2="BackgroundImageFix" result="effect1_dropShadow_38_65"/>
<feBlend mode="normal" in="SourceGraphic" in2="effect1_dropShadow_38_65" result="shape"/>
</filter>
</defs>
</svg>
