<svg width="70" height="70" viewBox="0 0 70 70" fill="none" xmlns="http://www.w3.org/2000/svg">
<circle cx="35" cy="35" r="35" fill="#B5B5B5"/>
<g clip-path="url(#clip0_29_30)">
<path d="M35 35C32.3416 35 30.0659 34.0535 28.1729 32.1604C26.2798 30.2674 25.3333 27.9917 25.3333 25.3333C25.3333 22.675 26.2798 20.3993 28.1729 18.5063C30.0659 16.6132 32.3416 15.6667 35 15.6667C37.6583 15.6667 39.934 16.6132 41.827 18.5063C43.7201 20.3993 44.6666 22.675 44.6666 25.3333C44.6666 27.9917 43.7201 30.2674 41.827 32.1604C39.934 34.0535 37.6583 35 35 35ZM15.6666 54.3333V47.5667C15.6666 46.1972 16.0191 44.9386 16.7239 43.7906C17.4288 42.6427 18.3652 41.7667 19.5333 41.1625C22.0305 39.9139 24.568 38.9774 27.1458 38.3531C29.7236 37.7288 32.3416 37.4167 35 37.4167C37.6583 37.4167 40.2764 37.7288 42.8541 38.3531C45.4319 38.9774 47.9694 39.9139 50.4666 41.1625C51.6347 41.7667 52.5711 42.6427 53.276 43.7906C53.9809 44.9386 54.3333 46.1972 54.3333 47.5667V54.3333H15.6666ZM20.5 49.5H49.5V47.5667C49.5 47.1236 49.3892 46.7208 49.1677 46.3583C48.9461 45.9958 48.6541 45.7139 48.2916 45.5125C46.1166 44.425 43.9215 43.6094 41.7062 43.0656C39.4909 42.5219 37.2555 42.25 35 42.25C32.7444 42.25 30.509 42.5219 28.2937 43.0656C26.0784 43.6094 23.8833 44.425 21.7083 45.5125C21.3458 45.7139 21.0538 45.9958 20.8323 46.3583C20.6107 46.7208 20.5 47.1236 20.5 47.5667V49.5ZM35 30.1667C36.3291 30.1667 37.467 29.6934 38.4135 28.7469C39.36 27.8004 39.8333 26.6625 39.8333 25.3333C39.8333 24.0042 39.36 22.8663 38.4135 21.9198C37.467 20.9733 36.3291 20.5 35 20.5C33.6708 20.5 32.5329 20.9733 31.5864 21.9198C30.6399 22.8663 30.1666 24.0042 30.1666 25.3333C30.1666 26.6625 30.6399 27.8004 31.5864 28.7469C32.5329 29.6934 33.6708 30.1667 35 30.1667Z" fill="#292929"/>
</g>
<defs>
<clipPath id="clip0_29_30">
<rect width="40" height="40" fill="white" transform="translate(15 15)"/>
</clipPath>
</defs>
</svg>
