<svg width="58" height="58" viewBox="0 0 58 58" fill="none" xmlns="http://www.w3.org/2000/svg">
<g clip-path="url(#clip0_4_5155)">
<path d="M20.4346 25.6471C19.7475 25.0063 19.3874 24.2131 19.3544 23.2674C19.3213 22.3218 19.6252 21.5053 20.266 20.8182C20.9068 20.131 21.7 19.7709 22.6457 19.7379C23.5914 19.7049 24.4078 20.0087 25.095 20.6495C25.7821 21.2903 26.1422 22.0836 26.1753 23.0292C26.2083 23.9749 25.9044 24.7913 25.2636 25.4785C24.6228 26.1657 23.8296 26.5258 22.8839 26.5588C21.9382 26.5918 21.1218 26.2879 20.4346 25.6471ZM15.7743 30.6447C13.692 28.7029 12.6016 26.3236 12.5033 23.5067C12.4049 20.6898 13.3266 18.2402 15.2684 16.1578C17.2102 14.0755 19.5896 12.9852 22.4065 12.8868C25.2234 12.7884 27.673 13.7102 29.7553 15.652C31.1504 16.953 32.0951 18.4762 32.5891 20.2216C33.0832 21.9671 33.1391 23.7127 32.7569 25.4586L43.7516 35.7113L44.0045 42.9547L33.1394 43.3341L32.3882 39.1299L28.1418 38.6738L27.2345 34.3239L25.7664 32.9549C24.0515 33.458 22.3062 33.524 20.5306 33.1529C18.7549 32.7818 17.1695 31.9457 15.7743 30.6447ZM18.1045 28.1459C19.2706 29.2333 20.6262 29.8357 22.1714 29.9529C23.7166 30.0702 25.1399 29.7234 26.4411 28.9124L30.3455 32.5533L30.9629 35.5233L35.3009 36.0064L35.9166 39.7923L40.4438 39.6342L40.3594 37.2197L28.7713 26.4136C29.4895 25.059 29.7362 23.615 29.5114 22.0817C29.2867 20.5485 28.5912 19.2382 27.4251 18.1507C26.0508 16.8692 24.418 16.2614 22.5266 16.3274C20.6353 16.3935 19.0488 17.1137 17.7672 18.488C16.4856 19.8623 15.8779 21.4952 15.9439 23.3865C16.01 25.2779 16.7301 26.8643 18.1045 28.1459Z" fill="white"/>
</g>
<defs>
<clipPath id="clip0_4_5155">
<rect width="41" height="41" fill="white" transform="translate(28) rotate(43)"/>
</clipPath>
</defs>
</svg>
