<svg width="883" height="750" viewBox="0 0 883 750" fill="none" xmlns="http://www.w3.org/2000/svg">
<g filter="url(#filter0_d_3_5145)">
<path d="M780.69 510.494H464.453C458.799 510.494 454.197 505.893 454.197 500.238V39.6096C454.197 33.9548 458.799 29.3533 464.453 29.3533H780.69C786.344 29.3533 790.946 33.9531 790.946 39.6096V500.236C790.946 505.893 786.344 510.492 780.69 510.492V510.494ZM464.453 29.7907C459.038 29.7907 454.635 34.1963 454.635 39.6096V500.236C454.635 505.651 459.04 510.055 464.453 510.055H780.69C786.105 510.055 790.508 505.651 790.508 500.236V39.6096C790.508 34.1963 786.103 29.7907 780.69 29.7907H464.453Z" fill="#E0E0E0"/>
<path d="M416.022 510.494H99.7844C94.1297 510.494 89.5282 505.893 89.5282 500.238V39.6096C89.5282 33.9548 94.1279 29.3533 99.7844 29.3533H416.022C421.677 29.3533 426.279 33.9531 426.279 39.6096V500.236C426.279 505.893 421.677 510.492 416.022 510.492V510.494ZM99.7844 29.7907C94.3711 29.7907 89.9656 34.1963 89.9656 39.6096V500.236C89.9656 505.651 94.3711 510.055 99.7844 510.055H416.022C421.437 510.055 425.841 505.651 425.841 500.236V39.6096C425.841 34.1963 421.436 29.7907 416.022 29.7907H99.7844Z" fill="#E0E0E0"/>
<path d="M878.808 617.341H4V617.779H878.808V617.341Z" fill="#E0E0E0"/>
<path d="M122.505 642.298H94.4061V642.735H122.505V642.298Z" fill="#E0E0E0"/>
<path d="M395.707 637.557H302.051V637.994H395.707V637.557Z" fill="#E0E0E0"/>
<path d="M187.678 658.552H124.255V658.989H187.678V658.552Z" fill="#E0E0E0"/>
<path d="M741.537 637.329H665.971V637.767H741.537V637.329Z" fill="#E0E0E0"/>
<path d="M768.201 637.329H757.126V637.767H768.201V637.329Z" fill="#E0E0E0"/>
<path d="M651.536 648.229H557.25V648.667H651.536V648.229Z" fill="#E0E0E0"/>
<path d="M246.82 323.451C244.892 314.151 241.206 305.504 236.165 297.823L245.342 286.739L225.724 267.119L214.638 276.294C206.959 271.255 198.311 267.569 189.011 265.641L187.666 251.353H159.921L158.575 265.641C149.276 267.569 140.627 271.255 132.948 276.294L121.865 267.119L102.244 286.739L111.421 297.825C106.381 305.504 102.696 314.151 100.766 323.451L86.4786 324.799V352.542L100.766 353.89C102.696 363.189 106.381 371.835 111.421 379.516L102.244 390.6L121.865 410.22L132.948 401.042C140.627 406.084 149.276 409.769 158.575 411.697L159.921 425.984H187.666L189.011 411.699C198.311 409.771 206.959 406.084 214.638 401.042L225.724 410.22L245.342 390.6L236.165 379.516C241.206 371.835 244.892 363.189 246.82 353.89L261.106 352.542V324.799L246.82 323.451ZM211.354 338.67C211.354 359.413 194.538 376.23 173.793 376.23C153.048 376.23 136.232 359.413 136.232 338.67C136.232 317.926 153.048 301.109 173.793 301.109C194.538 301.109 211.354 317.924 211.354 338.67Z" fill="#F0F0F0"/>
<path d="M564.462 449.011C563.013 442.021 560.243 435.521 556.455 429.751L563.352 421.421L548.608 406.675L540.277 413.571C534.505 409.785 528.006 407.013 521.017 405.564L520.005 394.827H499.154L498.142 405.564C491.153 407.013 484.654 409.785 478.882 413.571L470.553 406.675L455.809 421.421L462.704 429.751C458.916 435.523 456.146 442.021 454.696 449.011L443.958 450.024V470.874L454.696 471.887C456.146 478.877 458.916 485.375 462.704 491.147L455.809 499.477L470.553 514.223L478.882 507.326C484.653 511.115 491.153 513.883 498.142 515.334L499.154 526.071H520.005L521.017 515.335C528.006 513.887 534.505 511.115 540.277 507.327L548.608 514.224L563.352 499.479L556.455 491.149C560.243 485.375 563.013 478.879 564.462 471.889L575.199 470.876V450.026L564.462 449.013V449.011ZM537.806 460.448C537.806 476.037 525.169 488.676 509.578 488.676C493.987 488.676 481.349 476.037 481.349 460.448C481.349 444.859 493.987 432.22 509.578 432.22C525.169 432.22 537.806 444.859 537.806 460.448Z" fill="#F0F0F0"/>
<path d="M369.75 544.732C368.709 539.711 366.72 535.043 363.999 530.898L368.952 524.915L358.362 514.324L352.378 519.277C348.232 516.557 343.564 514.567 338.544 513.526L337.818 505.814H322.839L322.113 513.526C317.094 514.567 312.424 516.558 308.279 519.277L302.296 514.324L291.705 524.915L296.658 530.898C293.938 535.043 291.948 539.711 290.907 544.732L283.195 545.46V560.437L290.907 561.165C291.948 566.185 293.938 570.853 296.658 574.999L291.705 580.983L302.296 591.573L308.279 586.618C312.424 589.341 317.092 591.328 322.113 592.371L322.839 600.083H337.818L338.544 592.371C343.564 591.33 348.232 589.341 352.378 586.618L358.362 591.573L368.952 580.983L363.999 574.999C366.72 570.853 368.709 566.185 369.75 561.165L377.463 560.437V545.46L369.75 544.732ZM350.604 552.947C350.604 564.144 341.525 573.223 330.328 573.223C319.13 573.223 310.052 564.144 310.052 552.947C310.052 541.749 319.129 532.671 330.328 532.671C341.527 532.671 350.604 541.749 350.604 552.947Z" fill="#F0F0F0"/>
<path d="M755.932 110.63C754.778 105.054 752.568 99.8716 749.546 95.2683L755.047 88.6251L743.288 76.8641L736.643 82.3649C732.04 79.3451 726.856 77.1353 721.281 75.9788L720.475 67.4145H703.843L703.036 75.9788C697.462 77.1353 692.278 79.3451 687.675 82.3649L681.03 76.8641L669.269 88.6251L674.77 95.2701C671.748 99.8733 669.54 105.056 668.383 110.632L659.819 111.44V128.07L668.383 128.877C669.54 134.451 671.748 139.633 674.77 144.238L669.269 150.883L681.03 162.644L687.675 157.144C692.278 160.165 697.462 162.375 703.036 163.53L703.843 172.094H720.475L721.281 163.531C726.856 162.377 732.04 160.167 736.643 157.144L743.288 162.644L755.047 150.883L749.546 144.24C752.568 139.635 754.778 134.453 755.932 128.878L764.495 128.072V111.442L755.932 110.633V110.63ZM734.673 119.752C734.673 132.187 724.593 142.267 712.159 142.267C699.724 142.267 689.645 132.185 689.645 119.752C689.645 107.32 699.724 97.2384 712.159 97.2384C724.593 97.2384 734.673 107.318 734.673 119.752Z" fill="#F0F0F0"/>
<path d="M134.1 474.24C133.402 470.874 132.068 467.744 130.244 464.964L133.564 460.952L126.464 453.85L122.453 457.171C119.672 455.348 116.544 454.013 113.178 453.315L112.691 448.143H102.649L102.16 453.315C98.7942 454.013 95.6641 455.348 92.8858 457.171L88.8739 453.85L81.7722 460.952L85.093 464.964C83.2681 467.742 81.9349 470.872 81.2368 474.239L76.0649 474.727V484.768L81.2368 485.256C81.9349 488.622 83.2681 491.751 85.093 494.531L81.7722 498.543L88.8739 505.644L92.8858 502.322C95.6641 504.147 98.7942 505.48 102.16 506.178L102.649 511.35H112.691L113.178 506.18C116.544 505.482 119.674 504.148 122.453 502.324L126.464 505.646L133.564 498.544L130.244 494.532C132.068 491.752 133.402 488.622 134.1 485.258L139.27 484.77V474.729L134.1 474.24ZM121.263 479.748C121.263 487.256 115.176 493.343 107.668 493.343C100.161 493.343 94.0737 487.256 94.0737 479.748C94.0737 472.241 100.161 466.154 107.668 466.154C115.176 466.154 121.263 472.241 121.263 479.748Z" fill="#F0F0F0"/>
<path d="M416.12 209.886H340.728V262.857H416.12V209.886Z" fill="#F0F0F0"/>
<path d="M378.035 245.368L341.135 211.173C340.78 210.844 340.761 210.292 341.088 209.936C341.415 209.579 341.97 209.56 342.325 209.889L378.05 242.997L414.273 210.332C414.631 210.006 415.184 210.036 415.508 210.395C415.832 210.753 415.804 211.306 415.445 211.63L378.035 245.368Z" fill="#E6E6E6"/>
<path d="M341.676 262.784C341.468 262.784 341.261 262.71 341.093 262.563C340.733 262.241 340.7 261.688 341.022 261.328L365.971 233.306C366.295 232.944 366.846 232.912 367.206 233.234C367.567 233.556 367.6 234.109 367.278 234.47L342.328 262.491C342.155 262.686 341.916 262.784 341.674 262.784H341.676Z" fill="#E6E6E6"/>
<path d="M415.357 262.784C415.116 262.784 414.878 262.684 414.703 262.491L389.754 234.47C389.432 234.109 389.465 233.556 389.825 233.234C390.186 232.912 390.737 232.944 391.06 233.306L416.01 261.328C416.332 261.688 416.299 262.241 415.938 262.563C415.772 262.712 415.564 262.784 415.356 262.784H415.357Z" fill="#E6E6E6"/>
<path d="M749.204 492.306L622.575 509.677L634.78 598.646L761.409 581.276L749.204 492.306Z" fill="#F0F0F0"/>
<path d="M693.301 559.865L623.903 511.25C623.507 510.974 623.411 510.428 623.689 510.032C623.964 509.635 624.51 509.542 624.907 509.819L692.993 557.515L746.665 493.882C746.978 493.512 747.531 493.47 747.896 493.777C748.266 494.088 748.313 494.639 748.001 495.008L693.301 559.865Z" fill="#E6E6E6"/>
<path d="M636.152 597.714C635.982 597.714 635.814 597.667 635.666 597.566C635.265 597.298 635.156 596.752 635.426 596.353L670.875 543.539C671.146 543.135 671.694 543.034 672.087 543.3C672.488 543.567 672.596 544.113 672.327 544.512L636.878 597.326C636.708 597.58 636.432 597.714 636.152 597.714Z" fill="#E6E6E6"/>
<path d="M759.904 580.738C759.703 580.738 759.502 580.67 759.335 580.528L710.974 539.212C710.607 538.899 710.565 538.346 710.878 537.979C711.193 537.613 711.744 537.569 712.112 537.883L760.473 579.198C760.84 579.511 760.882 580.064 760.569 580.432C760.396 580.633 760.151 580.738 759.904 580.738Z" fill="#E6E6E6"/>
<path d="M374.646 163.372C419.76 163.372 456.332 126.8 456.332 81.6861C456.332 36.5721 419.76 0 374.646 0C329.532 0 292.96 36.5721 292.96 81.6861C292.96 126.8 329.532 163.372 374.646 163.372Z" fill="#E0E0E0"/>
<path d="M374.646 147.536C411.014 147.536 440.496 118.054 440.496 81.6861C440.496 45.318 411.014 15.8358 374.646 15.8358C338.278 15.8358 308.795 45.318 308.795 81.6861C308.795 118.054 338.278 147.536 374.646 147.536Z" fill="white"/>
<path d="M374.646 127.757C400.09 127.757 420.717 107.13 420.717 81.6861C420.717 56.2418 400.09 35.6152 374.646 35.6152C349.201 35.6152 328.575 56.2418 328.575 81.6861C328.575 107.13 349.201 127.757 374.646 127.757Z" fill="#F0F0F0"/>
<path d="M395.264 102.305C406.651 90.9178 406.651 72.4552 395.264 61.0679C383.877 49.6806 365.414 49.6806 354.027 61.0679C342.64 72.4552 342.64 90.9178 354.027 102.305C365.414 113.692 383.877 113.692 395.264 102.305Z" fill="#E0E0E0"/>
<path d="M374.646 92.9448C380.997 92.9448 386.146 87.796 386.146 81.4446C386.146 75.0932 380.997 69.9444 374.646 69.9444C368.294 69.9444 363.145 75.0932 363.145 81.4446C363.145 87.796 368.294 92.9448 374.646 92.9448Z" fill="#F0F0F0"/>
<path d="M458.09 36.6527L458.718 33.4404C459.182 31.0697 460.667 29.0226 462.779 27.8486L473.814 21.7127L470.348 30.1721L458.09 36.651V36.6527Z" fill="#EBEBEB"/>
<path d="M458.09 36.1838L460.998 37.685C463.145 38.7925 465.671 38.8975 467.902 37.9702L479.561 33.1237L470.777 30.592L458.088 36.1856L458.09 36.1838Z" fill="#EBEBEB"/>
<path d="M472.901 27.8506L374.23 79.9664L375.046 81.512L473.718 29.3961L472.901 27.8506Z" fill="#E0E0E0"/>
<path d="M806.855 717.292C806.855 723.218 643.236 728.02 441.404 728.02C239.572 728.02 75.9529 723.218 75.9529 717.292C75.9529 711.366 239.57 706.563 441.404 706.563C643.238 706.563 806.855 711.368 806.855 717.292Z" fill="#F5F5F5"/>
<path d="M606.085 681.36C606.06 680.58 603.436 603.143 590.841 590.896C578.59 578.986 564.53 590.453 563.938 590.947L562.675 589.433C562.834 589.299 578.702 576.346 592.216 589.484C605.376 602.282 607.952 678.079 608.055 681.3L606.085 681.362V681.36Z" fill="#263238"/>
<path d="M607.166 696.578C607.075 695.652 598.558 603.616 632.17 565.04L633.655 566.333C600.6 604.268 609.04 695.469 609.127 696.384L607.166 696.576V696.578Z" fill="#263238"/>
<path d="M605.922 686.843L603.954 686.712C604.022 685.669 610.532 582.078 585.877 559.403L587.21 557.951C612.557 581.264 606.202 682.543 605.92 686.843H605.922Z" fill="#263238"/>
<path d="M609.133 686.786L607.161 686.77C607.185 683.916 607.974 616.799 627.04 605.875C631.278 603.443 635.428 603.038 639.377 604.671C650.905 609.44 656.617 629.956 656.855 630.828L654.953 631.347C654.897 631.142 649.257 610.891 638.621 606.492C635.268 605.108 631.703 605.474 628.022 607.584C609.93 617.95 609.14 686.098 609.134 686.786H609.133Z" fill="#263238"/>
<path d="M601.707 686.834L599.741 686.722C599.771 686.192 602.617 633.683 588.445 615.182C585.013 610.7 581.284 608.564 577.346 608.84C568.06 609.489 560.275 623.077 560.198 623.213L558.481 622.242C558.819 621.645 566.864 607.598 577.207 606.873C581.835 606.545 586.148 608.942 590.011 613.986C604.627 633.067 601.835 684.649 601.707 686.834Z" fill="#263238"/>
<path d="M604.815 693.976C604.428 688.882 595.55 568.986 611.171 547.859L612.754 549.029C597.566 569.573 606.685 692.585 606.779 693.826L604.815 693.976Z" fill="#263238"/>
<path d="M646.45 611.291C646.45 611.291 636.481 614.976 639.865 622.902C649.4 645.237 672.129 647.617 672.129 647.617C672.129 647.617 682.795 630.733 674.052 617.62C661.999 599.541 646.702 605.455 646.449 611.291H646.45Z" fill="#CC0000"/>
<path d="M602.885 601.296C602.885 601.296 612.863 600.878 613.432 609.479C613.998 618.078 591.813 641.871 591.813 641.871C591.813 641.871 575.981 636.148 579.382 614.686C582.784 593.225 600.404 596.005 602.885 601.296Z" fill="#CC0000"/>
<path d="M607.723 551.178C607.723 551.178 603.532 550.662 601.956 546.891C597.255 535.641 613.411 523.51 635.013 529.918C635.013 529.918 635.585 548.928 623.961 556.425C612.336 563.922 607.723 551.178 607.723 551.178Z" fill="#CC0000"/>
<path d="M570.702 610.13C570.702 610.13 574.179 605.362 568.925 604.895C563.671 604.428 540.924 614.621 546.906 637.952C546.906 637.952 576.163 628.41 577.178 618.64C578.193 608.872 570.704 610.13 570.704 610.13H570.702Z" fill="#CC0000"/>
<path d="M633.08 559.525C633.08 559.525 634.394 555.195 639.349 553.386C644.304 551.577 662.711 552.712 662.965 576.798C662.965 576.798 634.647 581.504 631.141 572.329C627.637 563.156 633.078 559.525 633.078 559.525H633.08Z" fill="#CC0000"/>
<path d="M617.793 579.539C617.793 579.539 619.697 576.238 623.336 578.005C626.974 579.77 637.7 590.809 627.472 604.132C627.472 604.132 608.466 592.703 610.02 584.683C611.451 577.291 617.793 579.539 617.793 579.539Z" fill="#CC0000"/>
<path d="M571.229 585.348C571.229 585.348 573.974 581.751 569.954 581.305C565.933 580.859 547.919 585.668 552.114 603.651C552.114 603.651 574.062 602.001 575.001 594.53C575.942 587.059 571.227 585.346 571.227 585.346L571.229 585.348Z" fill="#CC0000"/>
<path opacity="0.3" d="M589.852 634.383C589.637 634.383 589.45 634.225 589.418 634.007C587.847 622.807 593.14 609.531 602.591 600.972C602.771 600.809 603.046 600.822 603.21 601.004C603.373 601.184 603.359 601.46 603.179 601.623C593.932 609.995 588.75 622.959 590.286 633.884C590.319 634.124 590.153 634.346 589.913 634.379C589.892 634.379 589.873 634.383 589.852 634.383Z" fill="black"/>
<path opacity="0.3" d="M626.739 597.296C626.534 597.296 626.351 597.153 626.31 596.944C625.08 590.779 621.947 584.94 617.487 580.509C617.314 580.337 617.314 580.061 617.484 579.889C617.653 579.716 617.93 579.716 618.103 579.886C622.685 584.44 625.906 590.436 627.17 596.771C627.217 597.009 627.063 597.238 626.827 597.286C626.797 597.291 626.769 597.294 626.741 597.294L626.739 597.296Z" fill="black"/>
<path opacity="0.3" d="M668.354 633.154C668.191 633.154 668.035 633.064 667.96 632.908C663.586 623.925 655.074 615.597 646.272 611.69C646.051 611.592 645.952 611.333 646.05 611.113C646.148 610.892 646.407 610.791 646.627 610.891C655.604 614.876 664.288 623.369 668.746 632.525C668.852 632.742 668.761 633.002 668.544 633.109C668.483 633.14 668.418 633.153 668.354 633.153V633.154Z" fill="black"/>
<path opacity="0.3" d="M657.679 570.903C657.534 570.903 657.392 570.831 657.308 570.7C654.75 566.646 650.877 563.473 646.4 561.765C641.646 559.952 637.651 558.67 633.2 559.947C632.957 560.014 632.725 559.879 632.658 559.648C632.592 559.415 632.726 559.174 632.957 559.106C637.679 557.751 641.805 559.076 646.709 560.948C651.363 562.722 655.391 566.018 658.049 570.233C658.176 570.438 658.115 570.707 657.912 570.838C657.839 570.882 657.758 570.905 657.678 570.905L657.679 570.903Z" fill="black"/>
<path d="M593.36 563.583C593.36 563.583 600.005 564.375 600.39 560.308C600.775 556.238 578.425 540.402 560.086 553.495C560.086 553.495 565.732 571.656 579.164 574.961C592.595 578.267 593.36 563.583 593.36 563.583Z" fill="#CC0000"/>
<path opacity="0.3" d="M593.154 564.351C593.021 564.351 592.889 564.29 592.804 564.174C586.118 555.185 569.159 551.888 563.323 553.998C563.093 554.075 562.847 553.962 562.763 553.736C562.681 553.508 562.8 553.258 563.025 553.176C568.988 551.024 586.346 554.032 593.504 563.653C593.649 563.847 593.608 564.122 593.414 564.265C593.336 564.325 593.243 564.351 593.154 564.351Z" fill="black"/>
<path opacity="0.3" d="M556.474 597.081C556.396 597.081 556.317 597.06 556.247 597.018C556.041 596.892 555.976 596.623 556.1 596.416C559.877 590.215 567.229 586.767 571.278 585.264C571.497 585.178 571.756 585.296 571.84 585.521C571.924 585.747 571.808 585.999 571.582 586.083C567.642 587.547 560.488 590.896 556.849 596.869C556.765 597.004 556.621 597.079 556.474 597.079V597.081Z" fill="black"/>
<path opacity="0.3" d="M550.032 629.533C549.964 629.533 549.894 629.517 549.831 629.484C549.616 629.374 549.534 629.108 549.646 628.894C554.184 620.192 561.653 613.288 570.683 609.449C570.904 609.362 571.161 609.458 571.257 609.682C571.351 609.904 571.246 610.159 571.024 610.256C562.311 613.96 554.8 620.9 550.421 629.298C550.342 629.449 550.19 629.535 550.032 629.535V629.533Z" fill="black"/>
<path opacity="0.3" d="M608.601 551.161C608.538 551.161 608.477 551.147 608.415 551.12C608.197 551.017 608.102 550.756 608.205 550.538C611.803 542.86 618.773 536.747 626.855 534.184C627.079 534.116 627.329 534.24 627.402 534.469C627.476 534.698 627.348 534.943 627.117 535.017C619.266 537.508 612.492 543.446 608.998 550.909C608.923 551.068 608.765 551.161 608.601 551.161Z" fill="black"/>
<path d="M632.245 714.494H578.602L572.816 665.19H638.031L632.245 714.494Z" fill="#263238"/>
<path d="M647.052 657.586H563.795V672.796H647.052V657.586Z" fill="#263238"/>
<path opacity="0.3" d="M573.609 672.794L574.648 682.76H636.199L637.24 672.783L573.609 672.794Z" fill="black"/>
<path d="M349.186 107.068H140.677C138.608 107.068 136.931 108.679 136.931 110.667V188.964C136.931 190.951 138.608 192.563 140.677 192.563H204.268C209.298 197.701 226.585 214.387 226.585 214.387V192.563H349.184C351.253 192.563 352.931 190.951 352.931 188.964V110.667C352.931 108.679 351.255 107.068 349.186 107.068Z" fill="#FF0000"/>
<path opacity="0.6" d="M349.186 107.068H140.677C138.608 107.068 136.931 108.679 136.931 110.667V188.964C136.931 190.951 138.608 192.563 140.677 192.563H204.268C209.298 197.701 226.585 214.387 226.585 214.387V192.563H349.184C351.253 192.563 352.931 190.951 352.931 188.964V110.667C352.931 108.679 351.255 107.068 349.186 107.068Z" fill="white"/>
<path d="M176.352 131.091V166H169.193L155.301 145.852H155.08V166H146.642V131.091H153.903L167.642 151.205H167.932V131.091H176.352ZM193.879 166.494C191.129 166.494 188.766 165.932 186.788 164.807C184.822 163.67 183.305 162.091 182.237 160.068C181.18 158.034 180.652 155.676 180.652 152.994C180.652 150.301 181.18 147.943 182.237 145.92C183.305 143.886 184.822 142.307 186.788 141.182C188.766 140.045 191.129 139.477 193.879 139.477C196.629 139.477 198.987 140.045 200.953 141.182C202.93 142.307 204.447 143.886 205.504 145.92C206.572 147.943 207.107 150.301 207.107 152.994C207.107 155.676 206.572 158.034 205.504 160.068C204.447 162.091 202.93 163.67 200.953 164.807C198.987 165.932 196.629 166.494 193.879 166.494ZM193.93 160.205C194.93 160.205 195.777 159.898 196.47 159.284C197.163 158.67 197.692 157.818 198.055 156.727C198.43 155.636 198.618 154.375 198.618 152.943C198.618 151.489 198.43 150.216 198.055 149.125C197.692 148.034 197.163 147.182 196.47 146.568C195.777 145.955 194.93 145.648 193.93 145.648C192.896 145.648 192.021 145.955 191.305 146.568C190.601 147.182 190.061 148.034 189.686 149.125C189.322 150.216 189.141 151.489 189.141 152.943C189.141 154.375 189.322 155.636 189.686 156.727C190.061 157.818 190.601 158.67 191.305 159.284C192.021 159.898 192.896 160.205 193.93 160.205ZM211.376 166V139.818H219.473V144.591H219.746C220.223 142.864 221.001 141.58 222.081 140.739C223.161 139.886 224.416 139.46 225.848 139.46C226.234 139.46 226.632 139.489 227.041 139.545C227.45 139.591 227.831 139.665 228.183 139.767V147.011C227.786 146.875 227.263 146.767 226.615 146.688C225.979 146.608 225.411 146.568 224.911 146.568C223.922 146.568 223.03 146.79 222.234 147.233C221.45 147.665 220.831 148.273 220.376 149.057C219.933 149.83 219.712 150.739 219.712 151.784V166H211.376ZM239.783 166.375C237.851 166.375 236.095 165.875 234.516 164.875C232.936 163.875 231.675 162.375 230.732 160.375C229.788 158.375 229.317 155.892 229.317 152.926C229.317 149.847 229.805 147.312 230.783 145.324C231.76 143.335 233.038 141.864 234.618 140.909C236.209 139.955 237.919 139.477 239.749 139.477C241.124 139.477 242.3 139.716 243.277 140.193C244.254 140.659 245.061 141.261 245.697 142C246.334 142.739 246.817 143.506 247.146 144.301H247.317V131.091H255.652V166H247.402V161.756H247.146C246.794 162.562 246.294 163.318 245.646 164.023C244.999 164.727 244.186 165.295 243.209 165.727C242.243 166.159 241.101 166.375 239.783 166.375ZM242.68 159.881C243.692 159.881 244.555 159.597 245.271 159.028C245.987 158.449 246.538 157.636 246.925 156.591C247.311 155.545 247.504 154.318 247.504 152.909C247.504 151.477 247.311 150.244 246.925 149.21C246.55 148.176 245.999 147.381 245.271 146.824C244.555 146.267 243.692 145.989 242.68 145.989C241.646 145.989 240.771 146.273 240.055 146.841C239.339 147.409 238.794 148.21 238.419 149.244C238.055 150.278 237.874 151.5 237.874 152.909C237.874 154.318 238.061 155.545 238.436 156.591C238.811 157.636 239.351 158.449 240.055 159.028C240.771 159.597 241.646 159.881 242.68 159.881ZM269.259 151.068V166H260.923V139.818H268.849V144.625H269.139C269.719 143.023 270.707 141.767 272.105 140.858C273.503 139.938 275.168 139.477 277.099 139.477C278.94 139.477 280.537 139.892 281.889 140.722C283.253 141.54 284.31 142.687 285.06 144.165C285.821 145.631 286.196 147.347 286.185 149.312V166H277.849V150.949C277.861 149.494 277.491 148.358 276.741 147.54C276.003 146.722 274.974 146.312 273.656 146.312C272.781 146.312 272.009 146.506 271.338 146.892C270.679 147.267 270.168 147.807 269.804 148.511C269.452 149.216 269.27 150.068 269.259 151.068ZM303.584 166.494C300.845 166.494 298.482 165.955 296.493 164.875C294.516 163.784 292.993 162.233 291.925 160.222C290.868 158.199 290.339 155.795 290.339 153.011C290.339 150.307 290.874 147.943 291.942 145.92C293.01 143.886 294.516 142.307 296.459 141.182C298.402 140.045 300.692 139.477 303.328 139.477C305.192 139.477 306.896 139.767 308.442 140.347C309.987 140.926 311.322 141.784 312.447 142.92C313.572 144.057 314.447 145.46 315.072 147.131C315.697 148.79 316.01 150.693 316.01 152.841V154.92H293.254V150.08H308.254C308.243 149.193 308.033 148.403 307.624 147.71C307.214 147.017 306.652 146.477 305.936 146.091C305.232 145.693 304.419 145.494 303.499 145.494C302.567 145.494 301.732 145.705 300.993 146.125C300.254 146.534 299.669 147.097 299.237 147.812C298.805 148.517 298.578 149.318 298.555 150.216V155.142C298.555 156.21 298.766 157.148 299.186 157.955C299.607 158.75 300.203 159.369 300.976 159.812C301.749 160.256 302.669 160.477 303.737 160.477C304.476 160.477 305.146 160.375 305.749 160.17C306.351 159.966 306.868 159.665 307.3 159.267C307.732 158.869 308.055 158.381 308.271 157.801L315.925 158.023C315.607 159.739 314.908 161.233 313.828 162.506C312.76 163.767 311.357 164.75 309.618 165.455C307.879 166.148 305.868 166.494 303.584 166.494ZM343.125 147.812L335.472 148.017C335.392 147.472 335.176 146.989 334.824 146.568C334.472 146.136 334.011 145.801 333.443 145.562C332.886 145.312 332.239 145.188 331.5 145.188C330.534 145.188 329.71 145.381 329.028 145.767C328.358 146.153 328.028 146.676 328.04 147.335C328.028 147.847 328.233 148.29 328.653 148.665C329.085 149.04 329.852 149.341 330.955 149.568L336 150.523C338.614 151.023 340.557 151.852 341.83 153.011C343.114 154.17 343.761 155.705 343.773 157.614C343.761 159.409 343.227 160.972 342.17 162.301C341.125 163.631 339.693 164.665 337.875 165.403C336.057 166.131 333.977 166.494 331.636 166.494C327.898 166.494 324.949 165.727 322.79 164.193C320.642 162.648 319.415 160.58 319.108 157.989L327.341 157.784C327.523 158.739 327.994 159.466 328.756 159.966C329.517 160.466 330.489 160.716 331.67 160.716C332.739 160.716 333.608 160.517 334.278 160.119C334.949 159.722 335.29 159.193 335.301 158.534C335.29 157.943 335.028 157.472 334.517 157.119C334.006 156.756 333.205 156.472 332.114 156.267L327.545 155.398C324.92 154.92 322.966 154.04 321.682 152.756C320.398 151.46 319.761 149.812 319.773 147.812C319.761 146.062 320.227 144.568 321.17 143.33C322.114 142.08 323.455 141.125 325.193 140.466C326.932 139.807 328.983 139.477 331.347 139.477C334.892 139.477 337.688 140.222 339.733 141.71C341.778 143.187 342.909 145.222 343.125 147.812Z" fill="#CC0000"/>
<path d="M303.863 101.796H242.445C242.082 101.796 241.789 101.502 241.789 101.14C241.789 100.778 242.082 100.484 242.445 100.484H303.863C304.225 100.484 304.519 100.778 304.519 101.14C304.519 101.502 304.225 101.796 303.863 101.796Z" fill="#CC0000"/>
<path d="M318.948 101.796H312.433C312.071 101.796 311.777 101.502 311.777 101.14C311.777 100.778 312.071 100.484 312.433 100.484H318.948C319.311 100.484 319.604 100.778 319.604 101.14C319.604 101.502 319.311 101.796 318.948 101.796Z" fill="#CC0000"/>
<path d="M337.909 359.814C324.645 369.958 316.908 385.853 317.528 402.539C317.939 413.616 321.428 427.032 330.853 442.474C359.889 490.046 395.655 464.955 422.288 455.588C450.443 445.683 480.536 431.989 501.993 420.417C511.417 415.336 509.21 411.356 509.21 411.356C509.21 411.356 445.013 297.193 436.395 293.587C429.356 290.643 362.265 341.187 337.907 359.814H337.909Z" fill="#CC0000"/>
<path d="M383.609 457.595C383.472 459.482 421.84 585.002 434.692 590.992C447.545 596.985 486.714 582.736 488.253 573.358C489.793 563.978 456.916 432.531 456.916 432.531L383.609 457.595Z" fill="#CC0000"/>
<path d="M501.664 418.036C541.571 402.552 582.883 416.186 582.883 416.186C557.437 395.354 541.374 364.433 519.789 327.993C489.277 276.485 482.889 216.853 482.107 216.874C482.023 256.278 436.395 293.586 436.395 293.586C436.395 293.586 404.597 323.947 437.949 377.907C471.3 431.865 501.664 418.034 501.664 418.034V418.036Z" fill="#FF0000"/>
<path opacity="0.8" d="M501.664 418.036C541.571 402.552 582.883 416.186 582.883 416.186C557.437 395.354 541.374 364.433 519.789 327.993C489.277 276.485 482.889 216.853 482.107 216.874C482.023 256.278 436.395 293.586 436.395 293.586C436.395 293.586 404.597 323.947 437.949 377.907C471.3 431.865 501.664 418.034 501.664 418.034V418.036Z" fill="white"/>
<path opacity="0.3" d="M459.044 441.09L409.489 460.67L461.936 452.883L459.044 441.09Z" fill="black"/>
<path d="M446.693 472.29L458.381 508.416C458.381 508.416 466.611 507.891 477.36 504.245L485.598 500.152L483.047 492.562C483.047 492.562 468.427 488.167 462.798 469.326L446.691 472.291L446.693 472.29Z" fill="#263238"/>
<path opacity="0.3" d="M477.362 504.243L473.984 494.982C473.984 494.982 458.921 493.15 453.492 471.037L446.693 472.29L458.381 508.416C458.381 508.416 469.013 507.257 477.36 504.245L477.362 504.243Z" fill="black"/>
<path d="M731.624 453.328C797.355 419.168 807.261 308.003 753.75 205.033C700.239 102.063 603.573 46.2815 537.842 80.4407C472.111 114.6 462.204 225.765 515.716 328.735C569.227 431.705 665.892 487.487 731.624 453.328Z" fill="#FF0000"/>
<path opacity="0.5" d="M731.624 453.328C797.355 419.168 807.261 308.003 753.75 205.033C700.239 102.063 603.573 46.2815 537.842 80.4407C472.111 114.6 462.204 225.765 515.716 328.735C569.227 431.705 665.892 487.487 731.624 453.328Z" fill="white"/>
<path opacity="0.1" d="M768.021 236.398C774.821 254.989 797.675 334.647 707.839 374.72C605.714 420.273 483.51 191.42 483.51 191.42L481.288 194.372C480.742 235.822 491.991 283.083 515.715 328.737C569.227 431.707 665.892 487.488 731.623 453.329C790.717 422.62 804.678 329.673 768.021 236.398Z" fill="black"/>
<path d="M499.896 287.156L588.185 257.384L617.457 318.276L542.934 371.657C542.934 371.657 516.323 345.026 499.896 287.156Z" fill="#CC0000"/>
<path d="M621.212 279.044C629.549 296.245 626.524 314.933 614.452 320.783C602.381 326.634 585.837 317.435 577.498 300.234C569.161 283.034 572.186 264.346 584.258 258.495C596.329 252.645 612.875 261.844 621.212 279.044Z" fill="#FF0000"/>
<path opacity="0.2" d="M621.212 279.044C629.549 296.245 626.524 314.933 614.452 320.783C602.381 326.634 585.837 317.435 577.498 300.234C569.161 283.034 572.186 264.346 584.258 258.495C596.329 252.645 612.875 261.844 621.212 279.044Z" fill="white"/>
<path d="M692.218 464.796C631.568 464.796 560.101 411.742 516.701 328.224C490.594 277.991 478.37 224.32 482.275 177.1C486.219 129.435 506.112 93.9754 538.291 77.2525C604.292 42.9566 701.988 99.7351 756.081 203.823C810.174 307.913 800.488 420.499 734.491 454.795C721.448 461.573 707.157 464.796 692.218 464.796ZM580.808 72.4306C566.621 72.4306 553.073 75.4837 540.709 81.91C510.19 97.7703 491.294 131.729 487.506 177.532C483.678 223.779 495.702 276.436 521.358 325.803C574.114 427.323 668.639 483.102 732.073 450.138C795.497 417.177 804.171 307.759 751.425 206.245C708.952 124.515 639.406 72.4306 580.81 72.4306H580.808Z" fill="#263238"/>
<path d="M698.164 105.26C722.154 124.947 742.273 149.183 757.176 176.409C761.407 184.138 765.212 192.097 768.57 200.244C769.205 201.783 771.745 201.11 771.1 199.545C759.146 170.539 741.675 143.929 719.75 121.478C713.513 115.091 706.919 109.066 700.018 103.404C698.724 102.34 696.855 104.188 698.162 105.26H698.164Z" fill="#CC0000"/>
<path d="M775.619 215.857C776.975 219.295 778.329 222.733 779.685 226.171C779.944 226.831 780.564 227.289 781.3 227.088C781.928 226.915 782.478 226.136 782.217 225.473C780.861 222.035 779.507 218.597 778.151 215.159C777.892 214.499 777.272 214.041 776.536 214.242C775.908 214.415 775.358 215.194 775.619 215.857Z" fill="#CC0000"/>
<path d="M255.99 680.429L258.172 703.297L275.371 705.179L277.115 680.587L255.99 680.429Z" fill="#B97964"/>
<path d="M254.447 699.647C254.412 698.744 255.198 698.027 256.083 698.062L261.311 698.263C262.632 698.282 263.979 700.739 264.745 701.837C268.05 706.574 270.603 704.836 274.324 700.478C276.657 700.233 277.246 702.966 277.426 703.703L281.575 719.955C281.935 721.312 281.15 722.71 279.818 723.079C279.582 723.144 279.337 723.174 279.092 723.167C272.003 723.069 268.647 723.022 259.822 722.899L232.832 722.525C225.475 722.423 224.051 714.841 227.092 714.183C240.762 711.301 250.467 707.345 254.732 703.361C255.327 702.836 254.51 701.304 254.445 699.649L254.447 699.647Z" fill="#263238"/>
<path d="M256.839 708.428C256.69 708.428 256.547 708.353 256.464 708.215C255.469 706.553 253.747 705.386 251.859 705.097C251.621 705.06 251.457 704.838 251.494 704.598C251.53 704.36 251.751 704.198 251.992 704.233C254.134 704.562 256.086 705.881 257.215 707.769C257.339 707.975 257.273 708.243 257.064 708.369C256.994 708.409 256.917 708.43 256.84 708.43L256.839 708.428Z" fill="white"/>
<path d="M252.963 710.68C252.815 710.68 252.671 710.605 252.589 710.467C251.593 708.804 249.872 707.639 247.982 707.35C247.744 707.314 247.58 707.091 247.617 706.852C247.653 706.614 247.87 706.449 248.115 706.486C250.258 706.815 252.211 708.134 253.338 710.02C253.462 710.227 253.395 710.494 253.187 710.62C253.117 710.661 253.04 710.682 252.963 710.682V710.68Z" fill="white"/>
<path d="M248.194 712.951C248.045 712.951 247.902 712.876 247.82 712.739C246.824 711.075 245.101 709.91 243.213 709.621C242.975 709.585 242.81 709.363 242.847 709.123C242.884 708.885 243.108 708.726 243.346 708.757C245.487 709.086 247.44 710.405 248.568 712.29C248.693 712.498 248.626 712.766 248.418 712.891C248.348 712.932 248.271 712.953 248.194 712.953V712.951Z" fill="white"/>
<path d="M296.81 671.121L316.327 683.239L328.244 670.694L309.735 654.409L296.81 671.121Z" fill="#B97964"/>
<path d="M311.166 683.991C310.426 683.473 310.331 682.413 310.895 681.729L314.223 677.691C315.038 676.65 317.809 677.068 319.148 677.124C324.918 677.364 325.082 674.279 323.87 668.679C325.088 666.675 327.621 667.862 328.314 668.163L343.758 674.708C345.056 675.243 345.693 676.716 345.179 677.999C345.088 678.226 344.963 678.44 344.808 678.631C340.434 684.212 338.366 686.854 332.921 693.8L316.273 715.045C311.735 720.836 304.839 717.376 306.159 714.559C312.146 701.937 314.879 691.821 314.293 686.012C314.237 685.221 312.522 684.941 311.166 683.991Z" fill="#263238"/>
<path d="M313.631 689.475C313.517 689.475 313.402 689.431 313.316 689.342C313.148 689.167 313.154 688.89 313.327 688.722C314.886 687.216 317.12 686.46 319.303 686.708C319.543 686.735 319.716 686.952 319.69 687.19C319.664 687.428 319.436 687.592 319.207 687.576C317.277 687.37 315.309 688.026 313.937 689.352C313.852 689.434 313.743 689.475 313.633 689.475H313.631Z" fill="white"/>
<path d="M313.075 693.924C312.961 693.924 312.846 693.88 312.76 693.791C312.592 693.616 312.597 693.339 312.77 693.172C314.329 691.665 316.564 690.902 318.747 691.156C318.987 691.182 319.16 691.399 319.134 691.637C319.106 691.877 318.877 692.048 318.651 692.024C316.725 691.823 314.755 692.475 313.379 693.801C313.294 693.884 313.185 693.924 313.075 693.924Z" fill="white"/>
<path d="M311.992 699.094C311.878 699.094 311.763 699.05 311.677 698.961C311.509 698.786 311.514 698.51 311.687 698.342C313.248 696.835 315.486 696.074 317.664 696.326C317.904 696.352 318.077 696.569 318.051 696.807C318.023 697.049 317.795 697.21 317.568 697.194C315.647 696.982 313.67 697.644 312.296 698.972C312.211 699.054 312.102 699.094 311.992 699.094Z" fill="white"/>
<path d="M323.683 658.496C323.683 658.496 311.617 643.741 296.301 624.944C329.903 445.75 297.29 396.883 297.29 396.883L297.162 396.879C297.166 396.788 297.167 396.678 297.059 396.601C289.572 378.645 236.888 390.245 236.888 390.245C234.755 397.689 232.892 409.099 231.576 418.487C229.095 423.944 192.332 505.177 185.747 541.823C181.929 563.072 219.948 604.015 254.127 635.917L252.55 692.027L281.661 693.212C283.904 683.839 285.975 674.773 287.919 665.946C298.467 674.9 305.413 680.429 305.413 680.429L323.679 658.498L323.683 658.496ZM233.268 546.671C231.426 543.691 250.115 497.85 260.41 473.154L256.062 567.054L255.836 575.115C243.559 559.914 234.265 548.279 233.27 546.669L233.268 546.671Z" fill="#FF0000"/>
<path opacity="0.6" d="M323.683 658.496C323.683 658.496 311.617 643.741 296.301 624.944C329.903 445.75 297.29 396.883 297.29 396.883L297.162 396.879C297.166 396.788 297.167 396.678 297.059 396.601C289.572 378.645 236.888 390.245 236.888 390.245C234.755 397.689 232.892 409.099 231.576 418.487C229.095 423.944 192.332 505.177 185.747 541.823C181.929 563.072 219.948 604.015 254.127 635.917L252.55 692.027L281.661 693.212C283.904 683.839 285.975 674.773 287.919 665.946C298.467 674.9 305.413 680.429 305.413 680.429L323.679 658.498L323.683 658.496ZM233.268 546.671C231.426 543.691 250.115 497.85 260.41 473.154L256.062 567.054L255.836 575.115C243.559 559.914 234.265 548.279 233.27 546.669L233.268 546.671Z" fill="white"/>
<path d="M237.439 379.789L237.145 390.29L297.591 396.634L297.841 387.75L237.439 379.789Z" fill="#263238"/>
<path d="M264.166 394.848L249.224 393.084L250.61 381.336L265.552 383.099L264.166 394.848ZM251.166 391.554L262.633 392.906L263.61 384.63L252.143 383.278L251.166 391.554Z" fill="white"/>
<path d="M239.08 303.063C240.643 290.597 249.202 289.826 249.202 289.826C249.202 289.826 256.165 289.343 267.951 289.673C277.066 290.24 286.131 291.453 295.075 293.3C303.553 294.959 311.901 297.225 320.052 300.084C318.565 303.973 317.213 307.665 315.958 311.138C301.489 350.817 299.648 365.297 297.584 387.78L237.154 380.846C235.929 338.099 237.672 314.67 239.082 303.062L239.08 303.063Z" fill="#CC0000"/>
<path d="M258.392 289.065C251.394 288.687 243.669 287.945 240.317 289.392C233.068 289.897 200.652 317.506 200.652 317.506L215.49 285.592L196.61 278.542C196.61 278.542 166.112 324.627 172.052 341.922C176.596 355.151 214.787 337.219 232.509 328.049C232.054 339.371 232.279 355.431 232.656 382.669L226.497 429.949L231.709 418.338C231.709 418.338 242.889 346.552 242.445 330.996C242 315.44 258.392 289.065 258.392 289.065Z" fill="#263238"/>
<path d="M216.47 237.958C217.439 236.641 219.649 236.721 219.7 237.984C219.75 239.246 220.034 243.247 219.927 246.421C219.882 247.791 219.915 249.7 219.946 251.537C219.976 251.752 220.008 251.966 220.006 252.188L219.981 254.03C219.988 254.938 219.981 255.74 219.952 256.313L219.924 258.429C219.897 259.692 219.637 260.938 219.152 262.105L213.298 272.104L206.49 271.988C200.867 269.026 204.62 257.841 204.62 257.841L205.626 251.434C205.963 249.278 207.799 247.676 209.98 247.628L215.399 247.625L215.408 247.539C215.612 245.3 215.502 239.277 216.472 237.96L216.47 237.958Z" fill="#B97964"/>
<path d="M302.406 239.367C309.215 243.84 319.328 274.385 304.806 283.515C290.284 292.644 253.226 283.663 250.419 269.864C248.743 261.841 251.698 253.554 258.072 248.402C258.072 248.402 256.09 218.086 272.513 215.763C288.935 213.441 298.578 226.18 298.578 226.18C298.578 226.18 295.598 234.893 302.407 239.367H302.406Z" fill="#263238"/>
<path d="M291.539 268.965L282.476 269.023L282.469 269.028L273.322 271.229C273.29 271.351 273.257 271.476 273.222 271.614L272.459 284.342C272.015 288.09 267.265 290.363 264.614 291.563C263.001 292.394 258.324 301.998 266.365 311.225C268.734 313.962 273.694 311.124 276.928 309.217C290.44 300.281 291.535 292.922 291.535 292.922C287.999 288.256 289.651 277.116 291.539 268.965Z" fill="#B97964"/>
<path d="M302.339 252.284C296.28 265.943 294.027 271.831 284.367 276.721C269.831 284.054 254.59 274.515 256.438 259.487C258.2 245.996 267.725 225.94 283.34 224.763C298.955 223.585 308.395 238.606 302.341 252.284H302.339Z" fill="#B97964"/>
<path d="M286.631 246.736C286.442 246.701 286.274 246.593 286.174 246.419C284.628 243.716 281.916 243.685 281.884 243.685C281.482 243.681 281.178 243.361 281.214 242.96C281.251 242.56 281.611 242.238 282.021 242.238C282.163 242.238 285.567 242.275 287.487 245.63C287.677 245.964 287.539 246.412 287.179 246.631C287.004 246.736 286.808 246.768 286.631 246.736Z" fill="#263238"/>
<path d="M265.424 238.21C265.296 238.119 265.211 237.976 265.197 237.799C265.17 237.435 265.463 237.073 265.847 236.987C269.709 236.135 271.682 238.261 271.765 238.355C271.997 238.613 271.936 239.04 271.626 239.309C271.318 239.578 270.881 239.587 270.648 239.332C270.573 239.248 269.014 237.624 265.944 238.303C265.744 238.347 265.561 238.308 265.424 238.21Z" fill="#263238"/>
<path d="M271.92 247.271C271.92 247.271 267.961 251.948 264.362 254.524C263.734 254.973 263.732 255.908 264.337 256.366C265.895 257.547 268.152 257.582 268.152 257.582L271.922 247.271H271.92Z" fill="#A24E3F"/>
<path d="M281.68 248.18C281.706 248.166 281.727 248.167 281.753 248.152L278.719 246.388C278.719 246.388 279.157 247.644 280.016 248.188C279.416 248.564 278.851 249.266 278.522 250.15C277.965 251.64 278.28 253.063 279.227 253.327C280.173 253.591 281.393 252.596 281.951 251.105C282.409 249.877 282.269 248.706 281.68 248.181V248.18Z" fill="#263238"/>
<path d="M267.443 243.863L267.461 243.856L264.427 242.093C264.427 242.093 264.922 243.505 265.895 243.979C265.307 244.343 264.759 245.013 264.441 245.86C263.898 247.305 264.224 248.689 265.167 248.951C266.11 249.214 267.317 248.257 267.859 246.813C268.337 245.541 268.141 244.316 267.443 243.863Z" fill="#263238"/>
<path d="M267.471 261.723C268.078 263.457 268.531 266.654 268.531 266.654C268.831 266.659 269.13 266.666 269.431 266.655C273.498 266.636 275.404 265.291 276.282 263.807C276.76 262.994 276.921 262.127 276.959 261.421C277.012 260.605 276.861 260.014 276.861 260.014C274.688 261.305 270.892 261.613 268.859 261.694C268.008 261.736 267.471 261.723 267.471 261.723Z" fill="#263238"/>
<path d="M268.859 261.694L269.21 263.139C273.04 263.111 275.743 262.581 276.959 261.421C277.012 260.605 276.861 260.014 276.861 260.014C274.688 261.305 270.892 261.613 268.859 261.694Z" fill="white"/>
<path d="M269.431 266.655C273.499 266.636 275.404 265.291 276.282 263.807C274.896 263.867 273.227 264.092 271.754 264.719C270.626 265.193 269.91 265.921 269.432 266.655H269.431Z" fill="#FD504E"/>
<path d="M290.41 274.251C305.151 267.301 313.967 230.09 290.507 224.406C267.046 218.721 263.214 243.653 263.214 243.653C271.828 216.732 295.764 234.881 295.764 234.881C292.515 243.223 293.071 256.118 293.071 256.118C295.136 264.164 290.41 274.282 290.412 274.249L290.41 274.251Z" fill="#263238"/>
<path d="M302.143 224.715C316.947 233.121 311.1 243.086 311.1 243.086C311.1 243.086 320.721 261.79 316.83 273.656C312.938 285.522 294.567 286.851 294.567 286.851C312.777 284.776 315.127 264.482 296.793 254.545C281.622 246.327 287.158 229.268 287.158 229.268C287.158 229.268 293.841 220.033 302.143 224.714V224.715Z" fill="#263238"/>
<path d="M286.652 245.902C286.474 245.902 286.306 245.791 286.241 245.613C281.351 232.12 288.409 227.123 288.711 226.916C288.909 226.78 289.182 226.831 289.319 227.03C289.455 227.23 289.404 227.501 289.205 227.637C288.925 227.83 282.418 232.496 287.063 245.315C287.146 245.541 287.028 245.793 286.801 245.875C286.752 245.893 286.701 245.902 286.652 245.902Z" fill="#263238"/>
<path d="M251.2 276.13C251.065 276.13 250.932 276.068 250.846 275.951C247.471 271.348 246.229 266.647 247.155 261.979C248.95 252.926 258.147 247.238 258.538 247C258.746 246.874 259.013 246.941 259.138 247.145C259.264 247.352 259.199 247.62 258.992 247.746C258.9 247.802 249.728 253.479 248.012 262.152C247.137 266.568 248.33 271.037 251.553 275.432C251.697 275.626 251.655 275.9 251.459 276.044C251.382 276.102 251.291 276.128 251.2 276.128V276.13Z" fill="#263238"/>
<path d="M302.787 262.169C300.154 264.593 296.816 265.606 294.095 265.478C290.004 265.286 290.006 258.614 292.52 255.211C294.783 252.149 299.23 251.01 302.675 252.865C306.069 254.692 305.798 259.4 302.787 262.169Z" fill="#B97964"/>
<path opacity="0.2" d="M295.031 259.435C294.977 259.435 294.923 259.424 294.87 259.403C294.646 259.314 294.536 259.06 294.625 258.835C295.197 257.397 296.338 256.207 297.755 255.57C299.176 254.933 300.815 254.877 302.257 255.412C302.483 255.496 302.598 255.748 302.514 255.976C302.428 256.203 302.175 256.317 301.951 256.233C300.723 255.776 299.325 255.825 298.114 256.369C296.901 256.914 295.927 257.932 295.439 259.16C295.37 259.332 295.206 259.437 295.033 259.437L295.031 259.435Z" fill="black"/>
<path opacity="0.2" d="M200.652 317.506C200.652 317.506 199.717 325.142 193.87 329.358C193.87 329.358 208.234 324.606 204.112 314.605L200.652 317.506Z" fill="black"/>
<path d="M198.461 279.233L204.289 269.695L213.849 271.162L210.554 283.747L198.461 279.233Z" fill="#B97964"/>
<path d="M375.874 317.13C367.675 312.614 330.615 301.545 322.971 299.233C321.613 298.822 320.297 298.532 319.048 298.325C315.208 297.069 310.975 296.07 306.23 295.403C306.23 295.403 293.784 317.064 292.653 339.648C291.523 362.23 303.665 466.901 303.665 466.901L321.982 462.271C321.982 462.271 311.129 397.217 319.018 329.346L353.134 332.39C353.134 332.39 327.59 355.42 327.235 356.066L339.356 369.466C339.356 369.466 366.59 345.106 374.144 340.096C381.697 335.083 383.004 321.058 375.874 317.132V317.13Z" fill="#263238"/>
<path opacity="0.2" d="M353.134 332.389C353.134 332.389 356.388 329.355 363.308 330.025C363.308 330.025 358.532 324.398 348.919 332.012L353.134 332.389Z" fill="black"/>
<path d="M325.674 368.135C325.674 368.135 320.85 367.617 317.757 370.171C314.664 372.724 314.132 378.062 313.035 380.844C311.362 385.082 315.881 383.189 316.763 380.844C318.009 377.532 318.011 377.877 318.011 377.877C318.154 379.537 312.12 392.535 312.58 394.813C313.04 397.093 314.674 395.296 314.674 395.296C314.674 395.296 313.294 398.493 314.41 399.385C314.7 399.616 315.75 399.684 316.607 398.326C318.535 395.271 322.255 388.651 322.255 388.651C322.033 389.027 318.028 397.525 317.594 398.876C317.027 400.641 317.661 401.764 318.695 402.058C320.168 402.478 325.494 392.11 326.024 391.83C326.024 391.83 322.757 397.696 323.811 399.369C324.864 401.042 327.121 397.46 328.512 393.924C329.785 390.684 331.182 384.571 332.158 381.15C333.362 376.935 335.176 373.924 332.044 371.261C328.912 368.6 325.674 368.135 325.674 368.135Z" fill="#B97964"/>
<path d="M322.441 369.008C322.792 368.774 329.934 358.939 329.934 358.939L338.95 369.008L332.627 373.574C332.627 373.574 321.036 368.774 321.739 368.891" fill="#B97964"/>
</g>
<defs>
<filter id="filter0_d_3_5145" x="0" y="0" width="882.808" height="749.02" filterUnits="userSpaceOnUse" color-interpolation-filters="sRGB">
<feFlood flood-opacity="0" result="BackgroundImageFix"/>
<feColorMatrix in="SourceAlpha" type="matrix" values="0 0 0 0 0 0 0 0 0 0 0 0 0 0 0 0 0 0 127 0" result="hardAlpha"/>
<feOffset dy="17"/>
<feGaussianBlur stdDeviation="2"/>
<feComposite in2="hardAlpha" operator="out"/>
<feColorMatrix type="matrix" values="0 0 0 0 0 0 0 0 0 0 0 0 0 0 0 0 0 0 0.25 0"/>
<feBlend mode="normal" in2="BackgroundImageFix" result="effect1_dropShadow_3_5145"/>
<feBlend mode="normal" in="SourceGraphic" in2="effect1_dropShadow_3_5145" result="shape"/>
</filter>
</defs>
</svg>
